<mxfile host="app.diagrams.net" modified="2020-08-25T13:36:51.450Z" agent="5.0 (Windows NT 10.0; Win64; x64) AppleWebKit/537.36 (KHTML, like Gecko) Chrome/84.0.4147.125 Safari/537.36" etag="nRNIn5YUeZ74dHsQk8t7" version="13.6.5" type="github">
  <diagram name="Page-1" id="c4acf3e9-155e-7222-9cf6-157b1a14988f">
    <mxGraphModel dx="1422" dy="914" grid="1" gridSize="10" guides="1" tooltips="1" connect="1" arrows="1" fold="1" page="1" pageScale="1" pageWidth="850" pageHeight="1100" background="#ffffff" math="0" shadow="0">
      <root>
        <mxCell id="0" />
        <mxCell id="1" parent="0" />
        <mxCell id="kPNmzYBDFxRPVbXv1-Kb-1" value="" style="endArrow=none;html=1;" edge="1" parent="1">
          <mxGeometry width="50" height="50" relative="1" as="geometry">
            <mxPoint x="70" y="350" as="sourcePoint" />
            <mxPoint x="190" y="340" as="targetPoint" />
            <Array as="points">
              <mxPoint x="140" y="270" />
            </Array>
          </mxGeometry>
        </mxCell>
        <mxCell id="kPNmzYBDFxRPVbXv1-Kb-2" value="" style="endArrow=none;html=1;" edge="1" parent="1">
          <mxGeometry width="50" height="50" relative="1" as="geometry">
            <mxPoint x="80" y="210" as="sourcePoint" />
            <mxPoint x="200" y="220" as="targetPoint" />
            <Array as="points">
              <mxPoint x="140" y="190" />
            </Array>
          </mxGeometry>
        </mxCell>
        <mxCell id="kPNmzYBDFxRPVbXv1-Kb-3" value="" style="endArrow=none;html=1;" edge="1" parent="1" target="kPNmzYBDFxRPVbXv1-Kb-4">
          <mxGeometry width="50" height="50" relative="1" as="geometry">
            <mxPoint x="140" y="270" as="sourcePoint" />
            <mxPoint x="140" y="190" as="targetPoint" />
          </mxGeometry>
        </mxCell>
        <mxCell id="kPNmzYBDFxRPVbXv1-Kb-4" value="" style="ellipse;whiteSpace=wrap;html=1;aspect=fixed;" vertex="1" parent="1">
          <mxGeometry x="100" y="110" width="80" height="80" as="geometry" />
        </mxCell>
        <mxCell id="kPNmzYBDFxRPVbXv1-Kb-5" value="" style="endArrow=classic;html=1;" edge="1" parent="1">
          <mxGeometry width="50" height="50" relative="1" as="geometry">
            <mxPoint x="210" y="240" as="sourcePoint" />
            <mxPoint x="410" y="240" as="targetPoint" />
            <Array as="points">
              <mxPoint x="310" y="240" />
            </Array>
          </mxGeometry>
        </mxCell>
        <mxCell id="kPNmzYBDFxRPVbXv1-Kb-6" value="" style="ellipse;whiteSpace=wrap;html=1;" vertex="1" parent="1">
          <mxGeometry x="410" y="220" width="120" height="50" as="geometry" />
        </mxCell>
        <mxCell id="kPNmzYBDFxRPVbXv1-Kb-7" value="user" style="text;html=1;align=center;verticalAlign=middle;resizable=0;points=[];autosize=1;" vertex="1" parent="1">
          <mxGeometry x="100" y="350" width="40" height="20" as="geometry" />
        </mxCell>
        <mxCell id="kPNmzYBDFxRPVbXv1-Kb-8" value="money" style="text;html=1;resizable=0;autosize=1;align=center;verticalAlign=middle;points=[];fillColor=none;strokeColor=none;rounded=0;" vertex="1" parent="1">
          <mxGeometry x="270" y="210" width="50" height="20" as="geometry" />
        </mxCell>
        <mxCell id="kPNmzYBDFxRPVbXv1-Kb-9" value="vending machine" style="text;html=1;resizable=0;autosize=1;align=center;verticalAlign=middle;points=[];fillColor=none;strokeColor=none;rounded=0;" vertex="1" parent="1">
          <mxGeometry x="415" y="235" width="110" height="20" as="geometry" />
        </mxCell>
        <mxCell id="kPNmzYBDFxRPVbXv1-Kb-10" value="" style="endArrow=classic;html=1;exitX=1;exitY=0.38;exitDx=0;exitDy=0;exitPerimeter=0;" edge="1" parent="1" source="kPNmzYBDFxRPVbXv1-Kb-6" target="kPNmzYBDFxRPVbXv1-Kb-11">
          <mxGeometry width="50" height="50" relative="1" as="geometry">
            <mxPoint x="470" y="430" as="sourcePoint" />
            <mxPoint x="650" y="310" as="targetPoint" />
            <Array as="points">
              <mxPoint x="610" y="240" />
            </Array>
          </mxGeometry>
        </mxCell>
        <mxCell id="kPNmzYBDFxRPVbXv1-Kb-11" value="" style="shape=process;whiteSpace=wrap;html=1;backgroundOutline=1;" vertex="1" parent="1">
          <mxGeometry x="610" y="280" width="120" height="60" as="geometry" />
        </mxCell>
        <mxCell id="kPNmzYBDFxRPVbXv1-Kb-12" value="wallet" style="text;html=1;resizable=0;autosize=1;align=center;verticalAlign=middle;points=[];fillColor=none;strokeColor=none;rounded=0;" vertex="1" parent="1">
          <mxGeometry x="635" y="300" width="50" height="20" as="geometry" />
        </mxCell>
        <mxCell id="kPNmzYBDFxRPVbXv1-Kb-13" value="developer&#39;s" style="text;html=1;resizable=0;autosize=1;align=center;verticalAlign=middle;points=[];fillColor=none;strokeColor=none;rounded=0;" vertex="1" parent="1">
          <mxGeometry x="615" y="280" width="80" height="20" as="geometry" />
        </mxCell>
      </root>
    </mxGraphModel>
  </diagram>
</mxfile>
